<svg width="140" height="60" viewBox="0 0 140 60" fill="none" xmlns="http://www.w3.org/2000/svg">
<g clip-path="url(#clip0_986_18138)">
<path d="M10.1746 53.4602C11.0426 52.5255 12.0656 51.4732 12.6763 50.9749C12.5058 50.9595 12.233 50.9285 11.9385 50.8821C11.303 51.4608 10.4908 52.3058 9.76538 53.0826C8.84468 54.0761 8.08517 54.9427 8.08517 54.9458C8.07277 54.952 8.06967 54.9675 8.05727 54.9799C7.45587 55.1439 6.43286 55.4256 5.75395 55.6113C4.74645 55.8898 3.84434 55.8217 3.84434 56.4779C3.84434 56.4779 2.80274 57.035 3.04454 57.8675C3.04454 57.8675 5.13705 56.1993 6.92576 55.9177C6.92576 55.9177 5.83146 56.6264 5.93066 57.589C5.93066 57.589 7.40317 55.3884 9.12368 56.7224C9.12368 56.7224 8.35797 55.6825 8.67727 55.1099C8.95318 54.7973 9.52048 54.1597 10.1746 53.4571V53.4602ZM6.86066 27.4776C6.77076 27.5178 6.67776 27.5333 6.57856 27.5333C6.27476 27.5333 5.98646 27.3476 5.86246 27.0474C5.85006 27.0226 5.83766 26.9947 5.83146 26.9638L5.60515 27.0381C5.79736 27.5921 6.37086 27.8985 6.88856 27.719C7.01876 27.6725 7.13656 27.6014 7.22646 27.5147C7.51167 27.2485 7.62637 26.8121 7.48687 26.3974L6.96606 26.5738C6.99706 26.6512 7.02186 26.7317 7.02186 26.8214C7.02186 26.8988 7.00946 26.9669 6.97846 27.035L7.21716 27.1804C7.17686 27.2423 7.12726 27.3042 7.06526 27.3569C7.00946 27.4095 6.94126 27.4497 6.86376 27.4807L6.86066 27.4776ZM27.9346 25.7908L17.6487 28.2946L37.7431 19.6162L21.1859 21.6404L30.0488 15.178L20.5504 18.8796L21.9857 16.0074L15.1904 20.8945L15.1315 20.7923L24.7664 0L9.10508 18.5082L9.00588 8.41845L3.25844 21.9065L2.96084 17.9294L0.130519 28.2761H0.136719C0.136719 28.2761 0.518021 27.9944 1.03262 27.8397C1.07292 27.8273 1.11633 27.818 1.15663 27.8056C1.16283 27.8056 1.16593 27.8025 1.17213 27.8025C1.21243 27.7933 1.25583 27.784 1.29613 27.7778C1.30233 27.7778 1.30853 27.7747 1.31473 27.7747C1.35813 27.7685 1.39843 27.7623 1.44493 27.7592C1.48833 27.7499 1.53173 27.7499 1.57513 27.7468H1.60303C1.64333 27.7437 1.68983 27.7437 1.73633 27.7468C1.73633 27.7468 1.74253 27.7468 1.75183 27.7499C1.79213 27.7499 1.82933 27.7499 1.86963 27.7592C1.87893 27.7592 1.88203 27.7592 1.89133 27.7592C1.93783 27.7654 1.97813 27.7716 2.01843 27.784C2.03083 27.784 2.04013 27.7871 2.04633 27.7902C2.08973 27.8025 2.13313 27.8118 2.18273 27.8304C3.14994 28.1801 3.97454 27.8304 3.97454 27.8304C3.97454 27.8304 4.88595 28.4154 4.88595 28.9044C4.88595 28.9044 3.68624 28.9756 3.68624 28.4463C3.68624 28.4463 2.15173 27.9016 0.00341797 28.697L4.53255 30.6407C4.53255 30.619 4.29075 29.7772 4.55115 29.4862C4.63485 29.3841 4.78055 29.35 5.00685 29.4274C5.09055 29.4584 5.14945 29.4491 5.18665 29.4119C5.54005 29.0498 3.83194 25.8991 3.83194 25.8991C3.83194 25.8991 2.29743 25.7505 0.970624 27.1371C0.883824 27.23 0.790823 27.329 0.707123 27.4342C0.843523 27.199 1.27133 26.515 1.99053 25.9208C2.42143 25.5617 2.95774 25.2368 3.59944 25.0542C3.77614 24.6332 3.55294 24.9087 3.91564 24.6859V24.6828C4.08614 23.5716 4.71545 20.7119 6.88856 18.2668C7.03426 18.1028 7.18306 17.9418 7.34427 17.784C7.34427 17.784 6.78626 18.8301 6.78626 19.5543C6.80176 19.5357 7.35047 18.7125 8.10997 17.9604C8.10997 17.9604 8.10067 17.9697 8.09137 17.9913C7.94877 18.2916 6.91646 20.5014 7.02186 21.1452C7.02186 21.1513 7.02806 21.1544 7.02806 21.1606L9.12058 19.2448C9.12058 19.2448 9.11438 19.2479 9.11128 19.251C9.04928 19.3346 7.14586 21.9065 6.95676 22.7855V22.7917L10.125 20.5323C10.1157 20.554 9.72508 21.0956 9.56078 21.3928C9.44608 21.6063 9.42748 21.6775 9.42748 21.6992L9.43368 21.7146L11.1387 20.9842C11.1387 20.9842 11.0643 21.074 10.9465 21.2009L10.311 21.8446L10.1529 22.0087L8.99968 23.1724L8.97798 23.2002L8.10067 24.0916L7.53647 24.6642C7.53647 24.6642 7.07456 25.1439 7.02186 25.3915C6.96606 25.636 7.22646 25.7877 7.22646 25.7877C7.46207 25.9177 7.65117 26.1219 7.76277 26.3634C7.82477 26.5088 7.85887 26.6698 7.85887 26.84C7.85887 27.1742 7.72247 27.4807 7.48997 27.6973C7.26366 27.9201 6.94746 28.0563 6.59716 28.0563C6.27786 28.0563 5.99576 27.9418 5.77256 27.7561C5.80976 27.8087 6.43596 28.5918 7.57987 27.982L8.99348 26.9514L9.05548 26.9019L10.5187 25.8341C10.8628 26.2396 11.1914 26.7317 11.4859 27.2857C10.6148 28.112 9.13298 29.5419 7.65427 31.1049C6.77076 32.0334 5.89036 33.0176 5.14015 33.9461L5.66715 31.4701L5.71055 31.2659C5.71055 31.2659 5.71055 31.2659 5.71055 31.269C5.71055 31.269 5.70125 31.269 5.69815 31.2751L5.69195 31.2813C5.68575 31.2813 5.67955 31.2813 5.67955 31.2937C5.67955 31.2937 5.67335 31.2937 5.67335 31.303C5.66715 31.3061 5.65785 31.3092 5.65475 31.3123C5.65475 31.3123 5.64855 31.3216 5.64235 31.3247C5.63615 31.3247 5.62995 31.337 5.62065 31.337C5.61755 31.3432 5.61135 31.3463 5.60205 31.3525C5.59585 31.3587 5.59275 31.3649 5.58035 31.368C5.57105 31.3773 5.56795 31.3835 5.55865 31.3897C5.55245 31.3959 5.54315 31.4051 5.53385 31.4082C5.52765 31.4206 5.51835 31.4299 5.50905 31.433C5.49665 31.4423 5.48735 31.4516 5.47805 31.4578C5.46875 31.4639 5.46255 31.4732 5.45325 31.4825C5.44085 31.4918 5.42845 31.498 5.41915 31.5135C5.40365 31.5197 5.40055 31.5289 5.38505 31.5351C5.37575 31.5475 5.36335 31.5599 5.34785 31.5692C5.34165 31.5785 5.32615 31.5877 5.31685 31.6001C5.30135 31.6125 5.28585 31.6249 5.27655 31.6404C5.26415 31.6496 5.25795 31.6589 5.24245 31.6682C5.23315 31.6837 5.21455 31.7023 5.19595 31.7146C5.18355 31.7239 5.17735 31.7301 5.16805 31.7425C5.15875 31.7518 5.14945 31.7611 5.13705 31.7704C5.13705 31.7734 5.13705 31.7734 5.13705 31.7734C5.12155 31.7889 5.10295 31.8075 5.08745 31.8261C5.07195 31.8353 5.06265 31.8508 5.05025 31.8632C5.03165 31.8787 5.01615 31.8941 5.00065 31.9096C4.98515 31.922 4.97275 31.9375 4.96035 31.9499C4.94795 31.9653 4.93555 31.9808 4.92935 31.9901C4.92315 31.9932 4.91695 32.0025 4.91075 32.0087C4.91075 32.0087 4.90455 32.0149 4.89835 32.021C4.88905 32.0303 4.87975 32.0396 4.86735 32.052C4.85185 32.0675 4.83945 32.0799 4.82705 32.0984C4.82705 32.1046 4.82085 32.1077 4.81465 32.1108C4.80845 32.117 4.80535 32.1201 4.79915 32.1263C4.79295 32.1387 4.78365 32.1479 4.77125 32.1603C4.75575 32.1851 4.74025 32.2006 4.71545 32.2222C4.69995 32.2439 4.68445 32.2563 4.67205 32.2779C4.65655 32.2996 4.63485 32.3213 4.61625 32.3398C4.60075 32.3615 4.58525 32.377 4.56975 32.3986C4.54805 32.4203 4.53255 32.4451 4.51085 32.4698C4.49535 32.4884 4.47985 32.507 4.46125 32.5286C4.44265 32.5534 4.42405 32.5751 4.40235 32.606C4.38685 32.6215 4.37135 32.6431 4.35585 32.6617C4.33415 32.6927 4.31245 32.7205 4.29075 32.7484C4.27215 32.77 4.25975 32.7855 4.25045 32.8041C4.22255 32.8381 4.19464 32.8753 4.16674 32.9093C4.15744 32.9217 4.14504 32.9403 4.13574 32.9526C4.09854 33.0053 4.05514 33.061 4.01794 33.1167V33.1229C3.97764 33.1755 3.93734 33.2312 3.90324 33.2838C3.89394 33.2993 3.88154 33.3179 3.87224 33.3333C3.84744 33.3736 3.81644 33.4169 3.78854 33.4602C3.77304 33.4819 3.76374 33.5005 3.74824 33.5221C3.72344 33.5624 3.69864 33.5995 3.67074 33.6428C3.65834 33.6676 3.64284 33.6893 3.63044 33.714C3.60874 33.7543 3.58084 33.7976 3.55294 33.8378C3.54054 33.8626 3.52504 33.8873 3.51264 33.9152C3.48784 33.9554 3.46614 33.9988 3.43824 34.0421C3.42584 34.0638 3.40724 34.0947 3.39484 34.1195C3.37004 34.169 3.34524 34.2092 3.32044 34.2526C3.30804 34.2773 3.29254 34.3052 3.28014 34.333C3.16234 34.5466 3.05074 34.7694 2.93294 35.0077L2.35013 35.1099C2.46793 34.8097 2.58263 34.5373 2.70664 34.2804L1.75493 35.6144L2.70664 35.5215C1.89443 37.3847 1.29923 39.8236 1.29923 43.2993L2.07423 42.8103C2.75624 46.6883 5.95856 48.3906 5.95856 48.3906L5.95236 48.3658C7.71627 49.5172 9.86458 50.325 12.2299 50.6438C12.5585 50.684 12.8251 50.7088 12.884 50.715C12.9274 50.7211 12.9646 50.7273 13.0049 50.7273C14.2852 50.8387 15.5314 50.7923 16.7218 50.619C16.7218 50.6654 16.7156 50.7088 16.7156 50.7552C16.7156 51.5228 17.1434 52.1541 17.689 52.2067C16.5699 54.1071 15.6647 56.6295 15.6616 56.6419C15.6182 56.7564 15.5283 56.9731 15.4384 57.0381C15.1625 57.1 15.1408 57.1154 14.837 57.2083H14.8401C14.7378 57.1062 13.8543 56.939 12.9553 57.2764C12.9553 57.2764 12.9553 57.2795 12.9615 57.2857C12.4531 57.5085 11.9571 57.9171 11.613 58.5918C11.9788 58.2977 12.6608 57.818 13.2157 57.883C12.5585 58.2575 11.4208 58.9725 11.2906 60C11.2906 60 15.2369 57.2362 17.1837 57.7468C17.1837 57.7468 16.9016 58.0687 17.5712 59.2634L17.8781 58.1523C18.2284 57.0752 16.8768 56.9143 16.3095 56.8926C16.3095 56.8833 16.3095 56.8802 16.3095 56.8802C16.3095 56.8802 16.3715 56.7069 16.4831 56.4222C16.8179 55.5587 17.5991 53.6521 18.4516 52.2903C18.4671 52.2625 18.4795 52.2315 18.4857 52.2037L18.3276 51.9839C18.3276 51.9839 18.4423 51.8601 18.5043 51.7673C18.619 51.5877 18.774 51.2844 18.7771 50.8852C18.7771 50.5695 18.6996 50.1733 18.4764 49.6812L18.9817 49.446C19.0096 49.511 19.0375 49.5698 19.0623 49.6286C19.0685 49.6503 19.0778 49.6688 19.084 49.6874C19.0995 49.7276 19.115 49.771 19.1305 49.8112C19.1398 49.8298 19.146 49.8514 19.1522 49.8731C19.1646 49.9195 19.1801 49.9598 19.1956 50C19.1956 50.0124 19.2049 50.031 19.208 50.0433L22.0973 49.1736L21.4556 48.6475H21.4525L21.4246 48.6196L21.4091 48.6072L10.4846 38.6722L10.4908 38.6784V38.6722C13.5257 40.1486 17.069 41.8632 23.08 44.6425C29.001 47.3661 32.7489 48.9539 34.6833 49.7462C34.6988 49.7555 34.7174 49.7617 34.7298 49.7679C35.0119 49.8824 35.2506 49.9783 35.4552 50.0619C35.8707 50.2228 36.2582 50.3745 36.2799 50.3838C36.3109 50.3652 36.3512 50.3559 36.3853 50.3374L14.2945 35.212L27.947 25.797L27.9346 25.7908ZM12.6484 30.4519L9.35618 32.9526L11.7215 27.7623C12.0966 28.5546 12.4128 29.4646 12.6546 30.4519H12.6484ZM24.4068 48.3473L24.4905 48.7434L28.3407 51.009L29.3141 51.5723L28.7809 50.2043C31.9553 51.139 34.5407 51.1916 36.2613 50.3838C33.2666 51.2659 25.8452 48.7713 24.413 48.3473H24.4068Z" fill="#DB0D15"/>
<path d="M3.68275 28.4436C3.68275 28.9728 4.88246 28.9047 4.88246 28.9047C4.88246 28.4157 3.97105 27.8308 3.97105 27.8308C3.97105 27.8308 3.14645 28.1774 2.17304 27.8308C1.78244 27.6884 1.37634 27.7348 1.02603 27.8432C0.56413 28.1496 -0.00317383 28.7005 -0.00317383 28.7005C2.14514 27.902 3.67965 28.4467 3.67965 28.4467L3.68275 28.4436ZM11.718 27.7658L9.35269 32.9561L12.6449 30.4553C12.4062 29.468 12.0869 28.5612 11.7149 27.7658H11.718ZM36.2733 50.378C36.2733 50.378 28.8766 47.6079 10.4718 38.6664L21.4397 48.6417H21.4428C22.4255 48.2331 23.1168 47.9453 24.4839 48.7438L24.4033 48.3476C25.8355 48.7717 33.2848 51.2817 36.2702 50.378H36.2733ZM18.4636 49.6754C18.6899 50.1675 18.7643 50.5668 18.7643 50.8794C18.7643 51.2786 18.6062 51.585 18.4915 51.7614C18.4295 51.8512 18.3179 51.9781 18.3148 51.9781L18.6434 52.4269C18.6775 52.4052 19.3193 51.9193 19.3193 50.8794C19.3193 50.4739 19.2232 49.9942 18.9658 49.4402L18.4605 49.6754H18.4636ZM11.8606 50.8701C12.3814 50.9536 12.8588 50.997 12.8588 50.997L12.8836 50.7215C12.8836 50.7215 12.4186 50.6813 11.9071 50.5977L11.8606 50.8701ZM11.4855 27.2922C11.191 26.7382 10.8655 26.2461 10.5183 25.8407L7.57948 27.9917C6.39217 28.6169 5.76596 27.7596 5.76596 27.7596C5.98296 27.9453 6.27437 28.0598 6.59367 28.0598C7.29117 28.0598 7.85228 27.512 7.85538 26.8404C7.85538 26.6701 7.82128 26.5092 7.75618 26.3668C7.64768 26.1223 7.45547 25.918 7.21987 25.7881H7.22607C7.22607 25.7881 6.96567 25.6364 7.02147 25.3919C7.07727 25.1443 7.53607 24.6646 7.53607 24.6646L8.98068 23.2006L9.00238 23.1728L10.3137 21.8419L10.9492 21.1981C11.067 21.0682 11.1383 20.9846 11.1383 20.9846L9.43019 21.7119C9.43019 21.7119 9.39609 21.6934 9.56349 21.39C9.73089 21.0867 10.1308 20.5296 10.1308 20.5296L6.95947 22.789C7.14237 21.9007 9.12329 19.2452 9.12329 19.2452L7.03077 21.1579C6.89127 20.4925 8.11268 17.9577 8.11268 17.9577C7.34077 18.719 6.78897 19.5578 6.78897 19.5578C6.78897 18.8274 7.34387 17.7812 7.34387 17.7812C4.80186 20.3192 4.09505 23.4977 3.91835 24.68C3.54945 24.9091 3.77575 24.6305 3.59905 25.0514C1.89404 25.5343 0.923732 27.0539 0.703631 27.4315C2.08934 25.7262 3.83155 25.8964 3.83155 25.8964C3.83155 25.8964 5.91166 29.7373 5.00646 29.4247C4.09505 29.109 4.53216 30.6349 4.53216 30.6349L2.83024 29.9013C3.11235 30.4553 3.66415 31.7645 3.34485 33.1232C2.99455 33.6556 2.64734 34.3025 2.34044 35.101L2.92325 35.0019C3.03795 34.7574 3.14955 34.5377 3.26425 34.3241C3.27975 34.2963 3.29835 34.2715 3.31075 34.2436C3.33245 34.1972 3.35725 34.157 3.38515 34.1106C3.40065 34.0827 3.41615 34.0548 3.42855 34.0301C3.45335 33.9899 3.47505 33.9465 3.49985 33.9063C3.51535 33.8784 3.53395 33.8537 3.54325 33.8289C3.57115 33.7887 3.59285 33.7453 3.62075 33.7082C3.63315 33.6834 3.64865 33.6587 3.66105 33.6401C3.68585 33.5999 3.71375 33.5566 3.73855 33.5163C3.75095 33.4947 3.76335 33.473 3.77885 33.4513C3.80365 33.4111 3.83155 33.3678 3.86255 33.3275C3.87495 33.309 3.88115 33.2904 3.89355 33.2749C3.92765 33.2192 3.96795 33.1666 4.00515 33.1171C4.00515 33.1171 4.00825 33.1109 4.00825 33.1078C4.04545 33.0521 4.08265 32.9994 4.11985 32.9468C4.13225 32.9345 4.14465 32.9159 4.15395 32.9004C4.18185 32.8633 4.20665 32.8292 4.23455 32.7921C4.24695 32.7735 4.26245 32.758 4.27795 32.7395C4.29655 32.7085 4.31825 32.6807 4.33995 32.6497C4.35855 32.6311 4.37405 32.6126 4.38645 32.594C4.40815 32.5661 4.42675 32.5414 4.44845 32.5166C4.46396 32.4981 4.48256 32.4795 4.49806 32.4578C4.51976 32.4331 4.53526 32.4114 4.55696 32.3866C4.57556 32.3681 4.58796 32.3495 4.60346 32.3309C4.62206 32.3093 4.64066 32.2845 4.66236 32.2659C4.67476 32.2474 4.69336 32.2319 4.70576 32.2133C4.72436 32.1886 4.74296 32.1731 4.75846 32.1514C4.77706 32.1359 4.78946 32.1174 4.80496 32.1019C4.82356 32.0833 4.83906 32.0678 4.85766 32.0462C4.87006 32.0276 4.88556 32.0152 4.89796 31.9998C4.91656 31.9812 4.93206 31.9657 4.95066 31.944C4.96306 31.9348 4.97856 31.9162 4.99096 31.9007C5.00336 31.8852 5.02196 31.8667 5.04056 31.8543C5.04986 31.8419 5.06226 31.8295 5.07776 31.8172C5.09326 31.7986 5.11186 31.78 5.12736 31.7645C5.14286 31.7553 5.14906 31.7429 5.16146 31.7367C5.18936 31.7088 5.21106 31.6872 5.23586 31.6624C5.25136 31.6562 5.25756 31.6469 5.26996 31.6345C5.28236 31.6191 5.29786 31.6067 5.31026 31.5943C5.31956 31.585 5.33196 31.5726 5.34126 31.5634C5.35676 31.551 5.36916 31.5417 5.37846 31.5293C5.39086 31.5231 5.39706 31.5138 5.41256 31.5077C5.42186 31.4953 5.43426 31.486 5.44666 31.4767C5.45286 31.4674 5.46216 31.4581 5.47146 31.4519C5.48386 31.4458 5.49006 31.4334 5.50246 31.4272C5.50866 31.4272 5.51796 31.4148 5.52726 31.4024C5.53656 31.4024 5.54586 31.39 5.55206 31.3839C5.56136 31.3808 5.56446 31.3715 5.57376 31.3622C5.58616 31.3591 5.58926 31.3529 5.59546 31.3467C5.60476 31.3405 5.60786 31.3374 5.61406 31.3312C5.62026 31.3312 5.62956 31.3219 5.63576 31.3189C5.64506 31.3189 5.64816 31.3096 5.64816 31.3065C5.65436 31.3034 5.66056 31.3003 5.66676 31.2972C5.66676 31.291 5.66986 31.2879 5.67296 31.2879C5.67296 31.2786 5.68226 31.2786 5.68536 31.2755C5.68536 31.2755 5.69156 31.2724 5.69156 31.2693C5.69466 31.2662 5.69776 31.2662 5.70396 31.2631V31.26L5.66056 31.4643L5.13356 33.9403C7.13617 31.4643 10.0905 28.5921 11.4793 27.2768L11.4855 27.2922ZM5.60476 27.0354L5.83416 26.9611C5.84036 26.992 5.85276 27.023 5.86516 27.0446C5.98916 27.3479 6.27437 27.5306 6.58127 27.5306C6.67737 27.5306 6.77347 27.5151 6.86337 27.4748C7.01527 27.4129 7.13617 27.3046 7.21677 27.1746L6.97807 27.0323C7.00907 26.9673 7.02147 26.893 7.02147 26.8156C7.02147 26.7258 6.99977 26.6454 6.96567 26.568L7.48647 26.3916C7.67558 26.9456 7.40897 27.5367 6.88817 27.7132C6.37047 27.8896 5.79386 27.5894 5.60476 27.0323V27.0354Z" fill="black"/>
<path d="M53.7606 31.1917C53.4103 31.0988 52.8864 31.0462 52.2013 31.0462H50.7195V39.4089L50.8776 39.2975L52.0959 38.4402L52.1393 38.4092V36.0446H52.6043C53.463 36.0446 54.1636 35.8156 54.6751 35.3699C55.1928 34.9181 55.4532 34.3021 55.4532 33.5377C55.4532 32.8227 55.2083 32.2223 54.7278 31.7488C54.4519 31.4764 54.1264 31.2876 53.7606 31.1886V31.1917ZM52.5268 34.8407H52.1362V32.278H52.5733C53.6924 32.278 54.2566 32.6927 54.2566 33.5191C54.2566 34.4012 53.6769 34.8438 52.5268 34.8438V34.8407ZM61.644 35.8435C62.1338 35.7042 62.5399 35.4411 62.8499 35.0511C63.194 34.6271 63.3645 34.1072 63.3645 33.516C63.3645 32.7608 63.0886 32.1387 62.543 31.6745C62.0532 31.2597 61.2534 31.0462 60.1653 31.0462H58.6401V39.4089L58.7951 39.2975L60.0196 38.4402L60.063 38.4092V36.0137H60.1312L62.4097 39.2758L62.4655 39.3563L62.5492 39.2975L63.5257 38.5918L63.6094 38.533L63.5505 38.4526L61.6502 35.8435H61.644ZM60.0568 34.8407V34.7571V32.3956V32.278H60.4939C61.613 32.278 62.1772 32.6927 62.1772 33.5191C62.1772 34.4012 61.5975 34.8438 60.4443 34.8438H60.0537L60.0568 34.8407ZM40.3654 31.2969C39.8849 31.1328 39.2246 31.0493 38.4093 31.0493H36.6144V39.3161H38.3876C39.2122 39.3161 39.857 39.2418 40.3158 39.087C40.7994 38.9323 41.2768 38.6568 41.7232 38.2669C42.6067 37.4838 43.0594 36.447 43.0594 35.1811C43.0594 33.9153 42.6253 32.8908 41.7728 32.114C41.3512 31.7302 40.8769 31.4578 40.3623 31.2938L40.3654 31.2969ZM40.7622 37.2486C40.4832 37.4993 40.1639 37.6881 39.8105 37.8026C39.4633 37.9171 39.0138 37.9728 38.4806 37.9728H38.0311V32.3956H38.4806C39.4881 32.3956 40.26 32.637 40.7684 33.1044C41.3419 33.6367 41.624 34.3331 41.624 35.1811C41.624 36.0292 41.3357 36.7194 40.7591 37.2486H40.7622ZM31.4436 32.2409C31.9675 32.2409 32.4852 32.3894 32.9905 32.6865L33.0773 32.7361L33.1238 32.6494L33.7159 31.6311L33.7655 31.5445L33.6787 31.4919C32.9874 31.0957 32.262 30.8945 31.5273 30.8945C30.1695 30.8945 29.0504 31.4021 28.201 32.4049C27.5066 33.2282 27.1562 34.1722 27.1562 35.2214C27.1562 36.3851 27.5779 37.4034 28.4025 38.2297C29.2395 39.0499 30.2563 39.4677 31.4343 39.4677C32.2155 39.4677 32.9688 39.2635 33.6787 38.8611L33.7283 38.8302V38.7466L33.7159 38.7249L33.1207 37.6974L33.068 37.6076L32.9781 37.6664C32.8107 37.7717 32.6495 37.8583 32.5007 37.9233C32.2124 38.0564 31.859 38.1245 31.4436 38.1245C30.6469 38.1245 29.9649 37.8428 29.4131 37.2826C28.8644 36.7255 28.5854 36.0261 28.5854 35.2121C28.5854 34.3981 28.8644 33.677 29.4131 33.1106C29.9618 32.5349 30.6438 32.2471 31.4405 32.2471L31.4436 32.2409ZM124.773 32.3956L124.801 32.3678L125.923 31.2226L126.093 31.0493H121.295V39.3161H124.801L124.829 39.2882L125.929 38.1431L126.09 37.9728H122.714V35.404H123.756L123.784 35.373L124.925 34.231L125.092 34.0576H122.714V32.3925H124.773V32.3956ZM100.484 32.3956H102.341V39.412L102.499 39.3006L103.717 38.4433L103.761 38.4123V32.3956H105.615V31.0493H100.484V32.3956ZM70.4604 30.8976C69.2731 30.8976 68.2408 31.3216 67.3976 32.1511C66.5451 32.9806 66.1142 33.9895 66.1142 35.1471C66.1142 36.4625 66.5885 37.5457 67.5185 38.3597C68.3617 39.0932 69.332 39.4677 70.3953 39.4677C71.595 39.4677 72.6366 39.0468 73.4829 38.2204C74.3293 37.3972 74.7602 36.382 74.7602 35.1966C74.7602 34.0112 74.3355 32.9991 73.4891 32.1635C72.649 31.3247 71.6322 30.9007 70.4573 30.9007L70.4604 30.8976ZM72.4878 37.2734C71.9236 37.8367 71.2261 38.1183 70.4077 38.1183C69.6637 38.1183 68.9879 37.8397 68.4175 37.2826C67.8378 36.7317 67.5464 36.0199 67.5464 35.1564C67.5464 34.3424 67.8285 33.6429 68.3865 33.0889C68.9414 32.5256 69.6358 32.2378 70.4449 32.2378C71.254 32.2378 71.9484 32.5256 72.4971 33.0889C73.052 33.6491 73.3311 34.3517 73.3311 35.178C73.3311 36.0044 73.0458 36.6977 72.4878 37.2703V37.2734ZM134.566 32.114C134.144 31.7302 133.667 31.4578 133.149 31.2938C132.669 31.1298 132.014 31.0462 131.193 31.0462H129.398V39.313H131.171C131.996 39.313 132.647 39.2387 133.103 39.0839C133.589 38.9292 134.06 38.6537 134.507 38.2638C135.393 37.4807 135.843 36.4439 135.843 35.178C135.843 33.9122 135.412 32.8877 134.563 32.1109L134.566 32.114ZM133.552 37.2486C133.27 37.4993 132.948 37.6881 132.603 37.8026C132.253 37.9171 131.807 37.9728 131.27 37.9728H130.821V32.3956H131.27C132.281 32.3956 133.05 32.637 133.561 33.1044C134.129 33.6367 134.417 34.3331 134.417 35.1811C134.417 36.0292 134.129 36.7194 133.555 37.2486H133.552ZM115.835 35.8435C116.325 35.7042 116.731 35.4411 117.041 35.0511C117.385 34.6271 117.553 34.1072 117.553 33.516C117.553 32.7608 117.277 32.1387 116.731 31.6745C116.238 31.2597 115.442 31.0462 114.354 31.0462H112.822V39.4089L112.98 39.2975L114.202 38.4402L114.245 38.4092V36.0137H114.31L116.586 39.2758L116.645 39.3563L116.728 39.2975L117.705 38.5918L117.782 38.533L117.726 38.4526L115.826 35.8435H115.835ZM114.251 34.8407V32.278H114.685C115.811 32.278 116.369 32.6927 116.369 33.5191C116.369 34.4012 115.792 34.8438 114.636 34.8438H114.251V34.8407ZM96.6029 31.0802L93.63 34.1226V30.9564L93.4719 31.0709L92.2536 31.9252L92.2102 31.9561V39.4089L92.3714 39.2975L93.5897 38.4402L93.63 38.4092V35.9177L93.7757 35.7754L96.6153 39.2789L96.6711 39.3501L96.7517 39.3006L97.7964 38.5949L97.8863 38.533L97.815 38.4464L94.7925 34.8097L98.3792 31.2226L98.5497 31.0493H96.637L96.606 31.0802H96.6029ZM79.1374 31.9314L79.094 31.9623V36.3665C79.094 37.0319 79.0227 37.4993 78.8863 37.7593C78.7623 38.0038 78.5484 38.1183 78.2229 38.1183C77.9873 38.1183 77.73 38.0285 77.4541 37.8428L77.3642 37.784L77.3115 37.8738L76.707 38.9137L76.6605 39.0004L76.7442 39.053C77.1999 39.3254 77.699 39.4677 78.2229 39.4677C78.9235 39.4677 79.497 39.2108 79.9217 38.7156C80.1387 38.4649 80.2937 38.1523 80.3867 37.7902C80.4735 37.4745 80.52 37.0103 80.52 36.3727V30.9595L80.3588 31.074L79.1374 31.9314ZM87.8639 32.3956L87.8949 32.3678L89.0171 31.2226L89.1814 31.0493H84.3888V39.3161H87.8887L87.9228 39.2882L89.0171 38.1431L89.1814 37.9728H85.8117V35.404H86.8471L86.875 35.373L88.0158 34.231L88.1863 34.0576H85.8148V32.3925H87.867L87.8639 32.3956Z" fill="white"/>
<path d="M138.552 33.7853C137.752 33.7853 137.104 33.1353 137.104 32.3399C137.104 31.5445 137.752 30.8945 138.552 30.8945C139.352 30.8945 140 31.5352 140 32.3399C140 33.1446 139.358 33.7853 138.552 33.7853ZM138.552 31.1112C137.867 31.1112 137.325 31.6497 137.325 32.3399C137.325 33.0301 137.87 33.5655 138.552 33.5655C139.234 33.5655 139.78 33.0146 139.78 32.3399C139.78 31.6652 139.234 31.1112 138.552 31.1112ZM138.949 33.1725L138.518 32.5194H138.233V33.1725H138V31.5166H138.676C138.955 31.5166 139.216 31.7147 139.216 32.0211C139.216 32.3894 138.887 32.5101 138.794 32.5101L139.237 33.1725H138.949ZM138.676 31.7209H138.233V32.3059H138.676C138.819 32.3059 138.977 32.1913 138.977 32.0211C138.977 31.8354 138.822 31.7209 138.676 31.7209Z" fill="white"/>
</g>
<defs>
<clipPath id="clip0_986_18138">
<rect width="140" height="60" fill="white"/>
</clipPath>
</defs>
</svg>
